# xmcd
#
# Track frame offsets: 
#        150
#        21946
#        40607
#        62476
#        82102
#
# Disc length: 1343 seconds
#
# Revision: 0
# Processed by: cddbd v1.5.2PL0 Copyright (c) Steve Scherf et al.
# Submitted via: ExactAudioCopyFreeDBPlugin 1.0
#
DISCID=35053d05
DTITLE=Brow - ~peridot~
DYEAR=2011
DGENRE=Alternative
TTITLE0=With you
TTITLE1=風
TTITLE2=summer days
TTITLE3=存在
TTITLE4=EARTH ~Unpluged
EXTD=
EXTT0=
EXTT1=
EXTT2=
EXTT3=
EXTT4=
PLAYORDER=
